<svg width="30" height="30" viewBox="0 0 30 30" fill="none" xmlns="http://www.w3.org/2000/svg">
<path d="M3.88477 11.385H26.3848M21.3848 16.3868L8.88477 16.385M13.0514 21.3856L8.88477 21.385M8.88477 3.88501V6.38501M21.3848 3.88501V6.38501M7.88477 26.385H22.3848C23.7849 26.385 24.485 26.385 25.0198 26.1125C25.4901 25.8729 25.8726 25.4904 26.1123 25.02C26.3848 24.4853 26.3848 23.7851 26.3848 22.385V10.385C26.3848 8.98487 26.3848 8.28481 26.1123 7.75003C25.8726 7.27962 25.4901 6.89717 25.0198 6.6575C24.485 6.38501 23.7849 6.38501 22.3848 6.38501H7.88477C6.48464 6.38501 5.78457 6.38501 5.24979 6.6575C4.77938 6.89717 4.39693 7.27962 4.15725 7.75003C3.88477 8.28481 3.88477 8.98487 3.88477 10.385V22.385C3.88477 23.7851 3.88477 24.4853 4.15725 25.02C4.39693 25.4904 4.77938 25.8729 5.24979 26.1125C5.78457 26.385 6.48463 26.385 7.88477 26.385Z" stroke="#9CE1E7" stroke-width="2" stroke-linecap="round" stroke-linejoin="round"/>
</svg>