
<svg width="168" height="32" viewBox="0 0 168 32" fill="none" xmlns="http://www.w3.org/2000/svg">
<path d="M16 5.29412C16 3.47483 17.6416 2 19.6667 2H34.3333C36.3584 2 38 3.47483 38 5.29412V30L27 20.1176L16 30V5.29412Z" stroke="#22C55E" stroke-width="3" stroke-linecap="round" stroke-linejoin="round"/>
<path d="M60.7 22.3C59.9533 22.3 59.2333 22.2 58.54 22C57.8467 21.7867 57.2667 21.5333 56.8 21.24L56.92 18.44H58.16L58.56 20.8C58.8667 20.9733 59.18 21.1 59.5 21.18C59.8333 21.26 60.2133 21.3 60.64 21.3C61.5867 21.3 62.34 21.0933 62.9 20.68C63.46 20.2533 63.74 19.6533 63.74 18.88C63.74 18.24 63.54 17.7467 63.14 17.4C62.7533 17.04 62.1333 16.6933 61.28 16.36L60.5 16.04C59.4733 15.64 58.64 15.1267 58 14.5C57.3733 13.86 57.06 13.0333 57.06 12.02C57.06 11.2467 57.2533 10.5867 57.64 10.04C58.04 9.49333 58.58 9.07333 59.26 8.78C59.94 8.47333 60.7067 8.32 61.56 8.32C62.2267 8.32 62.8333 8.41333 63.38 8.6C63.9267 8.78667 64.4133 9.04 64.84 9.36L64.72 11.98H63.5L63.08 9.72C62.5867 9.45333 62.04 9.32 61.44 9.32C60.68 9.32 60.04 9.51333 59.52 9.9C59 10.2733 58.74 10.8333 58.74 11.58C58.74 12.1933 58.9333 12.7 59.32 13.1C59.72 13.5 60.28 13.84 61 14.12L61.8 14.42C63.1067 14.9267 64.04 15.5 64.6 16.14C65.16 16.7667 65.44 17.5533 65.44 18.5C65.44 19.2867 65.2333 19.9667 64.82 20.54C64.42 21.1 63.8667 21.5333 63.16 21.84C62.4533 22.1467 61.6333 22.3 60.7 22.3ZM74.5544 22.2C74.0744 22.2 73.6744 22.06 73.3544 21.78C73.0344 21.5 72.8344 21.1267 72.7544 20.66C72.2077 21.1933 71.7277 21.5933 71.3144 21.86C70.901 22.1267 70.401 22.26 69.8144 22.26C69.081 22.26 68.4477 22.0533 67.9144 21.64C67.3944 21.2133 67.1344 20.5867 67.1344 19.76C67.1344 19.3733 67.221 19.0133 67.3944 18.68C67.581 18.3467 67.9144 18.02 68.3944 17.7C68.8744 17.38 69.561 17.06 70.4544 16.74C70.761 16.6333 71.1144 16.52 71.5144 16.4C71.9144 16.28 72.3144 16.1733 72.7144 16.08V15.58C72.7144 14.6067 72.5677 13.96 72.2744 13.64C71.981 13.32 71.501 13.16 70.8344 13.16C70.6877 13.16 70.521 13.1667 70.3344 13.18C70.161 13.1933 69.9677 13.2267 69.7544 13.28L69.3744 14.58C69.1877 15.22 68.841 15.54 68.3344 15.54C67.7744 15.54 67.461 15.2667 67.3944 14.72C67.581 13.96 68.021 13.36 68.7144 12.92C69.421 12.4667 70.281 12.24 71.2944 12.24C72.3477 12.24 73.1277 12.5067 73.6344 13.04C74.141 13.56 74.3944 14.4533 74.3944 15.72V19.98C74.3944 20.4067 74.461 20.7133 74.5944 20.9C74.7277 21.0733 74.901 21.16 75.1144 21.16C75.2877 21.16 75.4344 21.12 75.5544 21.04C75.6744 20.96 75.7877 20.8533 75.8944 20.72L76.2944 21.16C76.0544 21.5467 75.7877 21.82 75.4944 21.98C75.2144 22.1267 74.901 22.2 74.5544 22.2ZM68.9144 19.46C68.9144 19.9933 69.0677 20.3733 69.3744 20.6C69.681 20.8267 70.061 20.94 70.5144 20.94C70.7144 20.94 70.901 20.9133 71.0744 20.86C71.261 20.8067 71.481 20.7067 71.7344 20.56C71.9877 20.4 72.3144 20.1733 72.7144 19.88V16.82C72.3677 16.9133 72.0277 17.02 71.6944 17.14C71.361 17.2467 71.0877 17.34 70.8744 17.42C70.301 17.6467 69.8744 17.88 69.5944 18.12C69.3144 18.36 69.1277 18.5933 69.0344 18.82C68.9544 19.0467 68.9144 19.26 68.9144 19.46ZM82.1395 13.28V12.5H85.9395V13.28L84.8395 13.54L81.5995 22.12H80.7395L77.0995 13.48L76.0195 13.28V12.5H80.8595V13.28L79.0995 13.54L81.5395 19.94L83.7595 13.56L82.1395 13.28ZM91.1066 13.16C90.7332 13.16 90.3532 13.2667 89.9666 13.48C89.5932 13.6933 89.2666 14.0333 88.9866 14.5C88.7199 14.9667 88.5466 15.5867 88.4666 16.36H92.1066C92.5866 16.36 92.8999 16.26 93.0466 16.06C93.2066 15.86 93.2866 15.6133 93.2866 15.32C93.2866 14.9333 93.1866 14.58 92.9866 14.26C92.7999 13.9267 92.5399 13.66 92.2066 13.46C91.8866 13.26 91.5199 13.16 91.1066 13.16ZM91.0866 22.26C89.7399 22.26 88.6599 21.8267 87.8466 20.96C87.0332 20.08 86.6266 18.8733 86.6266 17.34C86.6266 16.3133 86.8332 15.42 87.2466 14.66C87.6732 13.9 88.2332 13.3067 88.9266 12.88C89.6332 12.4533 90.3999 12.24 91.2266 12.24C91.9199 12.24 92.5466 12.3933 93.1066 12.7C93.6666 13.0067 94.1132 13.4467 94.4466 14.02C94.7799 14.58 94.9466 15.2667 94.9466 16.08C94.9466 16.3067 94.9332 16.52 94.9066 16.72C94.8799 16.9067 94.8466 17.0667 94.8066 17.2H88.4266C88.4532 18.4267 88.7599 19.36 89.3466 20C89.9332 20.64 90.7066 20.96 91.6666 20.96C92.3066 20.96 92.8399 20.8333 93.2666 20.58C93.6932 20.3133 94.0866 19.9733 94.4466 19.56L94.9266 19.94C94.5532 20.6467 94.0466 21.2133 93.4066 21.64C92.7666 22.0533 91.9932 22.26 91.0866 22.26ZM99.9219 22.26C99.3619 22.26 98.8485 22.1933 98.3819 22.06C97.9152 21.94 97.4352 21.7533 96.9419 21.5L96.8619 19.3H97.9619L98.3419 21.04C98.8085 21.2533 99.3485 21.36 99.9619 21.36C100.722 21.36 101.282 21.22 101.642 20.94C102.015 20.66 102.202 20.2933 102.202 19.84C102.202 19.4133 102.049 19.0733 101.742 18.82C101.435 18.5533 100.969 18.3133 100.342 18.1L99.4219 17.76C98.6885 17.4933 98.1019 17.1467 97.6619 16.72C97.2219 16.2933 97.0019 15.74 97.0019 15.06C97.0019 14.5667 97.1352 14.1067 97.4019 13.68C97.6685 13.2533 98.0619 12.9067 98.5819 12.64C99.1019 12.3733 99.7352 12.24 100.482 12.24C101.029 12.24 101.522 12.3133 101.962 12.46C102.415 12.5933 102.855 12.7933 103.282 13.06L103.202 15.1H102.162L101.842 13.5C101.389 13.2733 100.929 13.16 100.462 13.16C99.8485 13.16 99.3819 13.2867 99.0619 13.54C98.7552 13.78 98.6019 14.1067 98.6019 14.52C98.6019 14.96 98.7352 15.2933 99.0019 15.52C99.2819 15.7467 99.7619 15.9867 100.442 16.24L101.062 16.46C102.062 16.8333 102.769 17.26 103.182 17.74C103.609 18.22 103.822 18.7733 103.822 19.4C103.822 19.9067 103.675 20.38 103.382 20.82C103.089 21.2467 102.655 21.5933 102.082 21.86C101.509 22.1267 100.789 22.26 99.9219 22.26Z" fill="#22C55E"/>
<circle cx="3" cy="16" r="3" fill="#22C55E"/>
</svg>